<svg xmlns="http://www.w3.org/2000/svg" viewBox="0 0 800.000000 800.000000">
    <g fill="#61DAFB" transform="translate(0.000000,800.000000) scale(0.100000,-0.100000)" stroke="none">
        <path d="M452 7984 c-215 -57 -382 -227 -437 -442 -13 -51 -15 -479 -13 -3568
l3 -3509 27 -67 c71 -177 189 -295 366 -366 l67 -27 3535 0 3535 0 67 27 c37
15 92 43 123 62 108 70 190 172 243 304 l27 67 0 3535 0 3535 -27 67 c-71 177
-189 295 -366 366 l-67 27 -3515 2 c-3018 1 -3522 0 -3568 -13z m4082 -1846
c-5 -7 -3 -8 5 -3 7 4 41 9 77 10 55 3 66 1 78 -17 14 -19 22 -20 108 -15 86
5 90 5 53 -7 -26 -9 -67 -12 -115 -8 -41 2 -72 1 -68 -3 11 -12 468 -13 468
-2 0 5 -43 7 -102 3 -99 -5 -101 -5 -55 8 26 8 75 12 110 11 l62 -4 -60 9
c-37 5 -75 5 -101 -2 -23 -5 -52 -8 -65 -5 -18 3 -16 5 11 6 28 2 31 4 15 10
-11 5 41 6 115 4 74 -3 137 -8 140 -11 3 -4 28 -8 55 -9 72 -2 145 -14 151
-24 3 -5 15 -9 27 -8 20 1 20 2 -3 9 l-25 8 25 1 c15 1 30 -3 35 -8 6 -5 42
-11 80 -15 39 -3 81 -7 95 -10 14 -2 42 -5 63 -5 26 -1 36 -5 31 -12 -5 -9 4
-10 32 -5 35 6 37 5 21 -8 -16 -13 -16 -14 10 -19 16 -3 35 -1 43 4 11 7 8 8
-10 4 -20 -5 -22 -4 -9 4 12 8 34 8 69 1 29 -6 55 -10 59 -11 3 0 -3 -4 -14
-8 -14 -6 -3 -8 35 -9 87 -1 110 -4 104 -13 -3 -5 14 -10 38 -10 39 -1 40 -2
13 -8 -21 -5 -7 -8 45 -8 41 -1 100 -9 130 -17 30 -9 60 -18 67 -19 7 -2 22
-12 34 -23 20 -17 22 -17 16 -1 -4 9 -2 17 3 17 6 0 10 -5 10 -11 0 -6 6 -9
13 -6 6 2 30 -5 52 -16 22 -12 44 -20 49 -18 5 1 4 -4 -2 -11 -8 -11 -7 -14 8
-14 10 0 16 4 13 9 -3 5 9 1 26 -7 22 -12 29 -21 24 -34 -6 -15 -5 -15 11 -3
13 11 16 11 14 1 -2 -7 3 -15 11 -18 9 -3 11 0 7 9 -5 10 -3 9 6 -1 7 -8 20
-16 28 -18 14 -3 102 -65 127 -88 7 -7 16 -14 21 -16 4 -1 18 -18 31 -36 13
-18 29 -31 35 -29 18 7 66 -46 57 -62 -5 -7 -12 -12 -17 -11 -5 1 -10 -4 -12
-12 -3 -10 -2 -10 6 1 7 9 11 10 17 2 5 -9 10 -9 21 0 11 9 20 5 44 -21 28
-30 42 -69 20 -55 -6 4 -8 10 -5 15 3 4 -2 13 -10 20 -11 9 -13 7 -11 -16 4
-35 21 -41 47 -18 18 16 19 16 13 1 -5 -13 -2 -16 11 -11 14 6 16 3 10 -16 -5
-15 -4 -20 3 -16 6 4 16 -2 21 -13 15 -27 14 -36 -3 -22 -11 9 -16 9 -22 -1
-4 -7 -4 -10 1 -6 4 4 14 3 22 -3 7 -6 22 -9 33 -6 11 3 20 2 20 -3 0 -4 11
-18 24 -32 26 -25 60 -108 45 -108 -5 0 -9 -5 -9 -11 0 -6 6 -9 13 -6 9 3 16
-10 23 -38 6 -24 6 -42 2 -39 -4 3 -8 1 -8 -5 0 -5 -3 -17 -7 -27 -4 -12 -3
-15 5 -10 14 8 14 3 3 -47 -5 -21 -5 -39 0 -43 5 -3 9 4 9 15 0 12 4 21 9 21
14 0 23 -37 16 -60 -4 -12 -1 -27 5 -35 7 -8 10 -26 8 -40 -3 -14 -1 -25 3
-25 5 0 9 -8 9 -17 0 -15 -2 -16 -10 -3 -9 13 -10 13 -9 0 1 -24 17 -58 19
-40 4 36 19 -48 16 -88 -2 -24 0 -39 4 -32 5 7 9 0 12 -19 3 -23 1 -30 -8 -27
-11 4 -12 -20 -3 -79 1 -5 -2 -19 -6 -30 -5 -14 -4 -16 3 -7 6 9 11 -6 15 -48
3 -34 10 -67 16 -73 14 -14 14 -6 1 28 -6 15 -11 56 -12 93 -1 37 -6 70 -11
73 -5 4 -7 13 -5 20 9 28 30 -34 33 -95 1 -34 3 -72 4 -86 2 -23 3 -24 12 -5
8 16 8 15 4 -8 -4 -19 -2 -26 5 -22 6 4 10 -8 11 -32 1 -21 4 -65 7 -98 7 -83
7 -175 -1 -205 -6 -21 -6 -22 3 -5 8 16 9 14 6 -15 -2 -19 -7 -46 -10 -60 -6
-22 -5 -22 4 -5 8 16 9 14 4 -11 -3 -17 -7 -52 -9 -77 -4 -57 -11 -68 -33 -61
-11 4 -13 3 -5 -3 18 -13 22 -100 3 -88 -6 4 -6 15 0 30 5 14 6 25 1 25 -4 0
-13 10 -20 23 -6 12 -9 14 -7 5 3 -10 3 -25 -1 -34 -5 -13 -7 -13 -14 -2 -7
10 -9 10 -9 -3 0 -9 3 -19 7 -22 10 -10 14 -69 4 -63 -4 3 -8 -9 -9 -26 l-1
-31 18 34 c10 20 14 39 9 46 -5 6 -5 14 0 17 14 8 23 -35 11 -50 -5 -6 -7 -20
-3 -30 5 -16 4 -17 -5 -4 -9 12 -10 7 -6 -21 5 -26 2 -39 -9 -48 -9 -8 -16
-19 -16 -25 0 -6 5 -4 10 4 8 12 10 11 10 -7 0 -12 -4 -25 -10 -28 -5 -3 -10
-14 -10 -23 0 -12 3 -13 8 -5 4 6 8 -7 8 -30 1 -30 -1 -36 -7 -22 -7 18 -8 18
-8 2 -1 -10 6 -25 14 -33 18 -18 20 -38 3 -28 -8 5 -9 2 -3 -12 4 -10 10 -34
13 -53 2 -19 15 -50 28 -69 13 -19 24 -42 24 -51 -1 -9 -7 -1 -16 18 -8 19
-17 31 -21 27 -4 -3 -1 -12 5 -18 7 -7 12 -19 12 -28 -1 -12 -4 -11 -16 5 -8
11 -12 30 -9 43 7 27 -1 29 -15 2 -9 -16 -7 -24 10 -42 11 -12 27 -23 37 -24
22 -4 34 -24 30 -51 -3 -13 0 -20 6 -16 5 3 7 0 5 -8 -3 -8 4 -29 15 -48 14
-23 16 -31 6 -26 -10 7 -9 2 4 -18 18 -28 25 -64 6 -37 -8 12 -9 11 -6 -5 2
-11 9 -19 15 -18 8 2 12 -15 13 -50 1 -28 2 -83 3 -120 2 -37 -1 -70 -6 -73
-4 -3 -8 -12 -8 -20 0 -8 5 -12 10 -9 15 9 12 -2 -6 -19 -8 -9 -11 -16 -5 -16
7 0 7 -10 0 -30 -6 -17 -16 -27 -22 -23 -6 4 -8 0 -4 -10 3 -10 2 -17 -3 -17
-5 0 -6 -7 -3 -17 4 -10 2 -14 -4 -10 -6 4 -14 0 -17 -9 -4 -9 -2 -13 5 -8 8
4 7 0 0 -15 -7 -11 -14 -21 -17 -21 -3 0 -2 5 1 10 3 5 4 10 1 10 -3 0 -13
-15 -21 -32 -14 -29 -14 -31 0 -14 18 24 20 8 1 -16 -7 -10 -16 -15 -19 -11
-4 3 -7 0 -7 -8 0 -9 -7 -24 -16 -35 -8 -10 -12 -13 -8 -5 4 9 3 12 -4 7 -6
-4 -9 -12 -6 -19 2 -7 -30 -46 -71 -87 -41 -41 -75 -71 -75 -68 0 4 -16 -8
-35 -27 -22 -23 -40 -33 -50 -28 -13 5 -14 7 -3 14 12 8 4 13 -14 10 -17 -2
-6 16 15 25 12 6 16 9 10 7 -7 -1 -13 2 -13 7 0 6 -5 10 -11 10 -5 0 -8 -4 -4
-9 3 -5 1 -12 -5 -16 -15 -9 -12 -31 5 -49 9 -9 11 -17 5 -21 -5 -3 -10 -1
-10 4 0 6 -5 11 -11 11 -6 0 -9 -6 -6 -14 4 -10 -1 -12 -16 -9 -14 3 -18 2
-10 -4 9 -6 7 -12 -8 -22 -17 -10 -20 -10 -13 1 4 7 -4 3 -19 -9 -15 -11 -35
-19 -45 -16 -10 2 -24 -2 -31 -11 -7 -8 -20 -12 -28 -9 -11 4 -14 2 -9 -5 4
-7 3 -12 -3 -12 -5 0 -18 -3 -28 -6 -16 -6 -16 -5 2 11 15 12 11 11 -15 -3
-28 -16 -39 -18 -55 -10 -18 10 -19 10 -6 -5 12 -15 12 -17 -2 -12 -8 4 -18 2
-22 -4 -3 -6 -12 -11 -18 -11 -7 0 -3 7 7 15 17 13 17 15 3 15 -9 0 -23 -9
-31 -21 -8 -12 -19 -19 -24 -15 -5 3 -23 -1 -40 -10 -35 -17 -72 -20 -122 -10
-24 4 -30 3 -20 -3 8 -5 19 -7 25 -4 5 3 5 0 -2 -7 -6 -7 -30 -13 -52 -14 -25
0 -41 -6 -41 -13 0 -7 -2 -13 -4 -13 -2 0 -13 -3 -23 -6 -15 -5 -15 -4 -3 5 9
7 11 11 3 11 -7 0 -17 -8 -22 -17 -6 -10 -11 -15 -11 -10 0 4 -13 1 -30 -8
-32 -17 -65 -21 -40 -5 12 7 10 9 -7 7 -12 0 -20 -4 -17 -8 4 -7 -19 -19 -36
-19 -22 0 -48 43 -46 74 2 21 -2 33 -10 33 -9 0 -10 -6 -4 -16 4 -9 6 -29 3
-45 -4 -20 -2 -27 6 -22 6 4 11 2 11 -3 0 -17 -15 -13 -44 10 -40 32 -58 72
-46 105 9 22 8 25 -2 16 -10 -8 -13 -5 -13 13 0 13 4 21 9 18 4 -3 5 4 1 16
-4 13 -2 21 5 21 6 0 8 4 5 10 -8 13 14 52 25 45 6 -3 7 1 4 10 -7 17 14 48
27 40 4 -3 5 -13 2 -21 -5 -13 -7 -13 -14 -2 -5 8 -9 9 -9 2 0 -6 7 -17 15
-24 12 -10 15 -9 16 6 0 18 1 18 10 -1 8 -17 8 -16 3 5 -3 14 -6 33 -7 42 -1
9 -6 14 -12 10 -5 -3 -3 3 5 13 8 10 38 29 67 41 28 13 54 28 58 33 11 19 23
12 18 -9 -6 -21 -6 -21 -41 -25 -13 -1 -28 -7 -35 -14 -6 -6 -19 -11 -29 -11
-27 0 -21 -15 7 -16 13 -1 23 3 22 8 -1 6 4 13 12 16 8 2 11 0 7 -6 -3 -6 -2
-14 4 -17 6 -4 9 -1 8 6 -2 7 3 14 10 15 6 1 16 2 22 3 14 2 41 57 32 67 -4 5
2 2 12 -6 18 -13 19 -13 14 1 -5 13 -2 16 14 11 16 -4 19 -2 13 8 -6 10 -4 12
9 7 10 -4 27 0 38 7 13 9 33 13 52 10 18 -3 26 -2 20 3 -8 5 -4 15 11 32 17
17 25 20 30 10 5 -7 4 -10 -3 -5 -6 3 -13 2 -17 -3 -6 -10 27 -7 44 3 5 4 11
1 13 -6 3 -7 4 18 4 55 -1 63 -10 88 -18 50 -2 -10 -4 3 -4 28 1 33 5 45 14
42 6 -3 12 0 12 7 0 6 -4 9 -9 5 -5 -3 -16 4 -24 15 -7 11 -17 17 -20 13 -4
-3 -7 2 -7 12 0 10 -7 23 -16 29 -18 14 -9 46 15 47 10 0 12 2 3 6 -7 3 -19 0
-26 -6 -10 -8 -19 -4 -37 16 -13 14 -18 23 -11 19 7 -4 12 -2 12 6 0 10 3 9 9
-2 6 -8 7 -18 4 -24 -3 -5 -1 -6 5 -2 6 4 8 14 5 23 -4 10 -2 14 4 10 7 -4 10
2 9 17 -1 21 -5 23 -41 21 -44 -3 -64 3 -45 15 9 5 9 13 2 27 -8 14 -8 23 0
31 8 8 4 9 -13 6 -17 -4 -20 -3 -10 4 9 6 10 12 3 16 -12 7 -5 36 8 36 5 0 11
-10 13 -22 4 -20 4 -19 6 4 1 30 -28 53 -57 45 -12 -3 -11 -5 6 -6 12 0 22 -5
22 -10 0 -14 -26 -21 -38 -9 -6 6 -12 6 -16 -1 -4 -6 -1 -11 7 -11 18 0 42
-28 33 -37 -3 -4 -20 6 -36 22 -16 16 -28 31 -25 34 3 2 -5 16 -17 29 -13 14
-18 22 -12 19 7 -4 15 0 18 9 3 9 2 12 -5 9 -14 -10 -41 3 -34 15 5 8 11 7 21
-1 11 -9 14 -9 14 0 0 7 5 9 11 6 6 -4 8 -14 5 -22 -3 -8 0 -24 8 -35 14 -19
15 -17 13 24 l-2 44 -40 -2 c-22 0 -47 5 -55 11 -8 7 -24 15 -35 18 -17 4 -17
5 4 6 13 0 29 -6 35 -15 10 -13 12 -13 13 6 1 11 -2 18 -8 15 -5 -4 -9 1 -9
10 0 10 5 13 13 9 8 -5 8 -2 -2 9 -15 18 -26 23 -16 7 3 -5 1 -10 -4 -10 -6 0
-11 5 -11 12 0 6 -3 8 -6 5 -4 -4 -1 -13 6 -22 10 -13 9 -15 -8 -15 -16 0 -20
5 -17 21 3 12 1 19 -2 15 -4 -3 -8 -38 -9 -77 -2 -39 -8 -77 -15 -85 -6 -7 -9
-21 -5 -29 3 -9 2 -13 -4 -10 -6 3 -11 -1 -11 -9 -2 -25 -4 -30 -16 -51 -10
-17 -12 -17 -13 -3 0 9 3 18 8 21 4 2 1 2 -5 1 -7 -2 -13 4 -13 12 0 8 4 13 9
9 19 -11 21 15 3 33 -19 19 -20 19 -18 -43 0 -35 4 -61 8 -58 4 2 5 -3 2 -11
-3 -9 -10 -16 -16 -16 -5 0 -6 -6 -2 -12 6 -10 4 -10 -7 0 -18 17 -29 15 -30
-5 0 -15 -2 -15 -9 2 -8 18 -9 18 -9 -5 -1 -14 -5 -32 -11 -40 -5 -9 -5 -19 1
-27 8 -8 8 -23 1 -45 -6 -18 -11 -64 -11 -103 -1 -38 -2 -78 -3 -87 -2 -20
-18 -25 -18 -6 0 6 -3 9 -6 6 -3 -4 -1 -16 6 -27 9 -17 8 -22 -5 -27 -9 -4
-14 -13 -10 -22 4 -12 3 -13 -10 -2 -12 10 -16 8 -25 -15 -6 -15 -8 -30 -5
-33 3 -3 5 1 5 9 0 12 2 11 10 -1 6 -10 5 -17 -5 -23 -19 -10 -49 -67 -35 -67
5 0 10 6 10 14 0 7 7 19 15 26 10 8 8 -3 -8 -38 -12 -27 -23 -44 -25 -36 -2 8
-7 12 -12 9 -5 -3 -6 -13 -3 -23 6 -16 6 -16 -10 0 -9 9 -17 23 -17 30 0 10 3
9 10 -2 9 -13 10 -13 10 0 0 8 7 27 14 43 8 15 11 27 6 27 -5 0 -12 -10 -16
-22 -6 -20 -8 -20 -19 -5 -10 14 -12 4 -11 -54 1 -39 -2 -73 -6 -75 -4 -3 -5
-11 -2 -18 3 -7 -6 -21 -20 -30 -22 -14 -26 -14 -26 -2 0 8 -6 16 -12 19 -7 2
-9 8 -5 13 4 5 12 2 17 -6 7 -12 12 -12 22 -2 12 12 12 12 -34 16 -8 1 -13
-12 -13 -30 -1 -22 3 -30 12 -27 21 8 15 -19 -10 -51 -23 -28 -24 -28 -54 -12
l-32 16 4 -29 c4 -27 2 -28 -36 -25 -37 3 -53 -8 -26 -20 8 -4 7 -5 -3 -4 -8
1 -32 -3 -53 -10 -21 -6 -44 -9 -52 -6 -7 3 -16 1 -20 -5 -3 -6 -18 -11 -33
-10 -25 0 -25 1 -7 10 17 8 17 9 -5 4 -14 -2 -41 -5 -60 -6 l-35 -2 40 -6 c39
-7 38 -7 -25 -14 -110 -13 -344 -16 -357 -5 -9 7 -13 6 -13 -3 0 -11 -3 -11
-11 1 -8 11 -12 12 -16 3 -3 -10 -10 -10 -25 -2 -14 8 -23 8 -27 1 -9 -14
-189 -8 -204 7 -6 6 -19 11 -29 11 -10 0 -21 7 -24 15 -4 8 -11 12 -18 8 -6
-3 -8 -3 -5 1 4 4 -4 18 -17 31 -21 21 -24 31 -20 77 3 29 5 57 5 61 1 5 5 6
11 2 5 -3 6 -13 3 -22 -4 -11 -3 -14 6 -9 7 5 10 15 7 23 -4 9 -1 23 6 31 11
13 11 14 -1 7 -9 -5 -5 5 7 22 29 42 114 83 169 83 25 0 43 5 43 11 0 8 12 9
38 4 20 -4 47 -7 60 -7 13 0 22 -6 22 -15 0 -10 -6 -12 -19 -8 -11 3 -22 1
-26 -4 -4 -7 14 -10 49 -8 31 1 56 5 56 10 0 4 -8 7 -17 8 -15 0 -15 2 2 9 22
9 27 8 -63 16 -49 4 -52 14 -5 14 22 0 58 6 79 14 22 7 47 12 56 11 16 -3 15
16 -2 40 -10 13 -24 93 -22 130 1 26 0 27 -8 10 -8 -17 -9 -16 -10 10 0 17 -4
75 -9 131 -5 56 -7 116 -6 135 2 19 4 51 4 72 1 34 3 38 21 32 15 -5 18 -3 14
9 -3 9 -10 16 -15 16 -12 0 -12 37 0 42 4 2 12 14 16 27 5 16 4 21 -4 17 -6
-4 -11 0 -11 8 0 9 5 16 11 16 6 0 9 9 6 20 -3 10 2 27 10 37 13 17 14 16 7
-7 -6 -23 -6 -23 11 -6 14 14 15 20 5 26 -7 5 -9 13 -5 21 5 8 -1 6 -12 -4
-14 -12 -29 -16 -46 -12 -14 4 -28 2 -31 -4 -4 -5 -14 -7 -23 -4 -10 4 -14 2
-10 -4 4 -6 -24 -10 -78 -10 -47 0 -85 4 -85 9 0 4 10 8 23 8 34 0 105 23 85
27 -9 3 -27 -1 -39 -7 -17 -10 -23 -9 -30 1 -7 11 -11 11 -17 2 -11 -18 -72
-29 -72 -13 0 7 7 10 15 7 8 -4 17 -3 19 2 3 4 -25 7 -62 6 -60 -2 -68 -5 -80
-26 -13 -24 -13 -24 -8 6 5 23 4 26 -4 13 -6 -9 -10 -29 -9 -45 4 -74 -1 -114
-15 -111 -8 2 -24 -8 -35 -21 -14 -16 -21 -19 -21 -10 0 8 5 20 12 27 9 9 9
12 0 12 -15 0 -14 2 -17 -85 -3 -76 -31 -145 -52 -124 -7 7 -12 4 -16 -11 -4
-15 -2 -20 8 -16 11 4 12 -1 3 -27 -6 -18 -16 -38 -22 -46 -6 -8 -9 -24 -8
-36 2 -13 -2 -26 -8 -30 -6 -4 -8 -15 -5 -25 3 -11 -2 -31 -12 -47 -10 -15
-13 -24 -6 -20 8 5 11 1 10 -12 -1 -15 -4 -17 -14 -9 -15 12 -18 -3 -3 -18 8
-8 5 -15 -7 -25 -16 -13 -17 -12 -4 4 8 9 9 17 3 17 -18 0 -20 -24 -3 -44 10
-12 11 -16 2 -11 -10 6 -12 2 -6 -16 7 -23 7 -23 -8 -4 -15 19 -16 18 -12 -21
l3 -41 -39 3 c-32 2 -37 1 -26 -11 8 -9 16 -10 25 -3 16 14 15 -2 -2 -25 -14
-17 -15 -17 -22 5 -7 23 -7 23 -17 -5 -6 -19 -6 -32 1 -39 8 -8 8 -18 1 -32
-10 -20 -10 -20 5 -2 18 23 20 36 6 36 -5 0 -10 8 -9 18 0 10 3 12 6 5 8 -21
29 -15 43 12 7 14 15 23 18 21 5 -6 -30 -70 -40 -74 -5 -2 -8 -9 -8 -16 0 -22
-38 -55 -58 -49 -21 5 -38 -22 -22 -32 6 -4 10 1 10 9 0 9 5 16 10 16 13 0 13
-13 -2 -28 -7 -7 -16 -8 -22 -3 -18 14 -56 -6 -56 -30 0 -15 -4 -19 -16 -15
-8 3 -13 2 -10 -3 8 -13 -30 -20 -45 -9 -10 7 -9 8 6 3 15 -5 17 -3 9 5 -9 9
-17 9 -34 0 -12 -7 -25 -8 -29 -4 -3 5 -17 10 -31 11 -23 2 -23 2 -5 -6 18 -9
18 -10 -6 -10 -15 -1 -32 -8 -39 -16 -11 -14 -10 -14 13 -6 42 16 106 21 113
9 5 -7 1 -9 -9 -5 -9 3 -22 1 -29 -6 -7 -7 -41 -25 -76 -40 -48 -21 -68 -25
-80 -17 -15 10 -14 10 3 6 11 -3 27 -1 35 4 10 6 5 9 -18 8 -18 -1 -35 -5 -38
-10 -3 -4 -15 -8 -27 -8 -18 0 -20 2 -7 11 12 9 12 10 -3 5 -10 -3 -37 -8 -60
-11 -33 -4 -36 -3 -17 4 29 10 6 14 -28 4 -18 -4 -20 -8 -10 -14 11 -7 10 -11
-2 -19 -10 -7 -11 -10 -2 -10 10 0 10 -4 0 -20 -10 -16 -20 -19 -43 -15 -23 5
-26 4 -15 -4 12 -9 10 -11 -10 -10 -14 0 -47 -4 -75 -10 -141 -28 -247 -33
-375 -16 -25 3 -50 6 -57 7 -7 1 -10 5 -7 9 2 5 12 6 22 3 14 -5 14 -4 3 4
-10 7 -21 7 -32 1 -42 -22 -98 77 -69 121 9 13 11 13 20 0 14 -22 44 0 48 34
2 14 8 26 13 26 5 0 9 5 9 10 0 15 -39 -7 -62 -34 -9 -12 -17 -16 -18 -10 0 6
9 19 20 29 11 10 18 21 15 25 -2 4 2 16 10 26 13 16 16 17 24 4 8 -12 10 -10
8 7 0 12 -6 19 -12 15 -5 -3 -4 2 4 11 7 9 18 14 25 10 6 -4 23 -8 37 -9 22
-1 26 3 25 25 -1 14 -5 31 -9 37 -4 7 1 18 11 25 16 13 16 13 2 -5 -14 -18
-14 -18 7 -6 11 8 19 19 16 25 -2 7 2 15 10 18 17 6 44 -9 34 -20 -5 -4 -12
-1 -16 6 -6 9 -11 10 -15 2 -4 -6 -2 -11 4 -11 6 0 8 -4 5 -10 -3 -5 -2 -10 4
-10 5 0 12 4 16 10 3 6 15 6 29 0 26 -10 68 12 52 27 -5 4 -11 2 -13 -4 -3 -7
-17 -13 -31 -12 -27 0 -27 0 6 16 33 17 39 27 22 38 -5 3 -10 1 -10 -5 0 -12
-41 -30 -53 -23 -5 3 9 14 29 25 36 19 38 19 51 2 7 -10 13 -13 13 -6 0 6 19
13 43 15 l42 4 -50 3 -50 3 50 6 c51 6 143 -1 183 -13 12 -4 21 -4 20 1 -4 14
23 54 33 48 5 -4 9 1 9 9 0 8 -6 14 -12 12 -7 -1 -10 -1 -5 1 13 8 7 32 -10
42 -12 6 -17 21 -15 53 1 28 -1 37 -6 24 -7 -15 -12 -8 -25 35 -14 41 -15 54
-5 60 7 4 15 6 17 3 3 -3 -1 -9 -9 -14 -11 -7 -10 -9 7 -7 20 1 21 3 9 22 -7
11 -21 20 -31 20 -11 0 -19 9 -22 23 -2 16 1 21 9 16 7 -4 8 -3 4 4 -4 6 -12
9 -19 6 -18 -6 -47 58 -36 78 9 16 -9 68 -23 68 -12 0 -10 -18 2 -25 6 -4 7
-11 4 -17 -4 -7 -2 -8 4 -4 7 4 12 3 12 -3 0 -5 -4 -13 -10 -16 -9 -5 -11 -1
-10 20 0 3 -11 22 -24 42 -14 20 -22 41 -19 46 3 5 7 26 8 47 2 38 -5 44 -34
26 -23 -15 -52 29 -47 70 3 20 1 32 -5 29 -5 -4 -13 5 -18 18 -6 14 -20 26
-35 29 l-25 5 30 -28 c16 -15 29 -32 29 -39 0 -6 5 -8 10 -5 6 3 10 1 10 -4 0
-18 -6 -13 -77 58 -52 53 -68 76 -68 97 0 32 -28 46 -39 19 -4 -13 -2 -14 14
-5 15 8 19 7 17 -9 -1 -12 -6 -17 -17 -13 -25 8 -40 24 -34 33 3 5 -6 13 -20
19 -14 5 -30 19 -37 32 -12 22 -12 22 14 5 23 -15 27 -15 41 -1 9 8 16 16 16
17 0 6 -89 -1 -98 -7 -6 -4 -21 7 -33 23 -12 17 -26 28 -31 25 -15 -9 -8 3 11
20 19 17 19 17 14 -3 -3 -12 -1 -21 4 -21 5 0 9 10 8 23 -2 25 -35 38 -35 13
0 -9 -3 -16 -6 -16 -22 0 -124 77 -124 94 0 6 5 4 10 -4 7 -11 10 -11 10 -2 0
7 5 10 11 6 8 -5 8 -9 -1 -14 -8 -5 -7 -9 5 -13 9 -4 13 -3 10 3 -9 15 11 12
24 -4 9 -11 9 -15 -1 -18 -8 -3 -7 -6 4 -10 18 -8 19 15 0 34 -8 8 -7 15 6 25
15 13 15 13 -4 4 -12 -6 -24 -8 -26 -5 -13 12 -58 14 -58 2 0 -9 -3 -9 -12 0
-9 9 -7 17 9 34 44 49 33 53 -138 53 -87 0 -152 -3 -146 -7 9 -6 8 -8 -2 -8
-8 0 -12 -2 -9 -5 3 -3 16 -2 29 3 28 11 49 5 49 -12 0 -17 -73 -56 -101 -55
-13 1 -33 -2 -43 -6 -11 -5 -17 -5 -14 1 4 5 -13 10 -36 10 -34 1 -42 -2 -43
-17 -2 -17 0 -18 13 -4 27 26 51 17 45 -17 -2 -13 11 -9 30 8 14 12 18 13 25
2 4 -7 4 -10 -1 -6 -4 4 -28 -13 -54 -37 -45 -44 -46 -45 -63 -25 -35 43 -71
10 -73 -67 -1 -36 1 -40 15 -30 8 6 6 0 -5 -13 -27 -34 -34 -38 -61 -35 -15 1
-21 -2 -17 -11 3 -8 0 -14 -6 -14 -6 0 -11 -5 -11 -11 0 -5 4 -7 10 -4 6 3 10
1 10 -5 0 -6 5 -8 11 -4 8 5 8 9 -1 14 -8 5 -9 10 -2 14 33 20 1 -57 -38 -94
-3 -3 -20 -24 -38 -47 -21 -27 -38 -40 -48 -36 -10 3 -12 0 -8 -10 3 -9 -11
-28 -43 -53 -26 -22 -59 -49 -72 -61 -14 -12 -27 -20 -30 -17 -3 3 1 9 9 14 8
5 -2 7 -30 6 -36 -2 -44 -6 -47 -24 -1 -12 2 -22 7 -22 6 0 9 5 7 11 -1 6 4
14 12 17 10 3 12 0 8 -12 -4 -11 -3 -15 4 -11 6 4 8 13 5 21 -3 8 -1 14 4 14
6 0 10 -6 10 -14 0 -15 -24 -39 -32 -31 -3 3 -11 -1 -18 -10 -7 -8 -19 -15
-27 -15 -8 0 -12 -4 -8 -9 3 -6 -6 -6 -25 -1 -17 5 -32 5 -35 -1 -4 -5 -11 -9
-16 -9 -6 0 -7 5 -4 10 3 6 -1 10 -9 10 -8 0 -18 -5 -21 -10 -4 -6 -10 -8 -15
-5 -13 8 -6 -21 10 -39 10 -13 15 -14 21 -4 4 7 11 9 16 4 8 -8 -1 -14 -89
-62 -31 -17 -64 -36 -72 -43 -8 -7 -22 -14 -30 -15 -9 -1 -27 -13 -41 -26 -21
-20 -27 -21 -38 -10 -10 10 -9 12 4 7 11 -3 16 0 15 10 0 9 5 18 13 21 9 3 11
0 6 -9 -5 -8 0 -6 12 4 11 9 22 14 26 11 3 -3 3 3 0 14 -2 11 0 23 6 26 6 4
11 12 11 19 0 6 -8 4 -17 -6 -10 -10 -18 -25 -18 -35 0 -9 -6 -16 -14 -14 -19
4 -70 -47 -68 -69 1 -14 4 -15 14 -7 8 6 16 8 19 5 3 -3 -3 -12 -15 -19 -13
-8 -21 -23 -21 -40 0 -16 -3 -28 -7 -28 -5 0 -9 -24 -10 -54 -2 -29 -7 -64
-13 -77 -7 -18 -9 -9 -5 41 2 38 1 57 -4 45 -7 -17 -9 -15 -16 15 -7 30 -9 32
-15 15 -4 -11 -3 -25 2 -32 5 -7 4 -13 -3 -15 -8 -3 -10 -11 -5 -24 8 -19 8
-19 16 1 8 18 9 17 9 -7 1 -16 -3 -28 -8 -28 -5 0 -11 -11 -13 -24 -4 -20 -1
-23 18 -21 15 1 21 -2 17 -11 -5 -13 -18 -18 -37 -15 -5 1 -6 -6 -2 -15 7 -18
-11 -47 -24 -39 -5 3 -5 -5 -2 -17 5 -19 7 -20 10 -5 2 9 8 17 13 17 11 0 4
-16 -19 -42 -11 -13 -19 -15 -28 -8 -9 8 -16 0 -26 -32 -11 -32 -31 -57 -77
-96 -34 -29 -66 -50 -72 -47 -13 8 0 28 15 22 6 -2 23 8 38 22 20 19 25 30 18
41 -7 10 -10 11 -11 3 -1 -7 -2 -18 -3 -25 0 -6 -7 -13 -15 -16 -9 -3 -12 0
-9 9 4 10 -3 14 -21 15 -25 1 -27 -2 -25 -36 1 -20 -5 -45 -14 -56 -12 -16
-14 -16 -9 -2 7 20 6 21 -17 12 -9 -3 -16 -10 -16 -16 0 -5 4 -6 10 -3 16 10
11 -1 -7 -16 -11 -10 -14 -10 -9 -1 13 22 -8 12 -37 -17 -31 -32 -79 -49 -85
-32 -5 14 -32 14 -32 0 0 -6 -5 -7 -12 -2 -7 4 -17 8 -22 8 -5 0 -11 6 -14 14
-3 9 0 11 9 6 8 -5 11 -4 6 1 -4 4 -18 9 -30 9 -15 0 -22 6 -22 20 0 11 -5 19
-11 18 -11 -2 -14 9 -16 74 0 23 -5 40 -9 37 -12 -7 -11 23 1 47 8 13 7 19 0
19 -6 0 -8 5 -4 12 4 7 3 8 -5 4 -6 -4 -8 -13 -5 -19 4 -7 3 -8 -2 -4 -11 10
-13 58 -3 51 8 -5 7 16 -2 31 -5 9 -5 26 0 80 1 6 6 3 11 -5 5 -8 10 -10 10
-5 0 6 -7 21 -16 33 -12 17 -13 29 -6 50 l10 27 1 -32 c1 -17 4 -34 9 -36 4
-3 7 35 7 83 0 50 -4 83 -8 77 -5 -7 -6 -1 -2 13 3 14 7 34 8 45 2 25 57 36
57 11 0 -9 5 -16 10 -16 15 0 12 26 -4 40 -13 10 -12 16 5 43 23 38 25 54 4
33 -8 -8 -15 -20 -15 -26 0 -6 -4 -8 -10 -5 -5 3 -7 0 -4 -8 6 -16 -23 -44
-33 -33 -4 4 -1 11 6 15 7 5 11 13 7 19 -3 6 3 32 13 59 19 44 21 46 27 24 l7
-25 9 24 c5 12 6 25 3 28 -3 3 -5 -1 -5 -9 0 -12 -2 -12 -9 0 -5 8 -7 21 -4
28 5 12 7 12 15 1 7 -9 8 -4 4 14 -5 20 -1 33 13 47 11 11 16 23 13 27 -4 4
-1 3 7 -1 11 -6 13 -4 8 8 -4 11 -2 14 9 10 7 -3 14 -8 14 -13 0 -11 -36 -41
-42 -35 -3 3 -8 0 -10 -7 -4 -9 5 -13 31 -12 45 2 44 2 36 14 -5 8 -11 7 -21
-1 -8 -7 -14 -7 -14 -1 0 12 25 34 31 27 3 -2 4 9 4 25 0 16 -4 32 -7 36 -4 4
-5 -3 -3 -15 2 -12 0 -19 -5 -16 -19 11 19 95 43 95 6 0 8 3 4 6 -3 4 5 21 18
39 14 17 22 35 17 40 -4 5 -1 5 5 1 10 -5 9 -12 -2 -30 -9 -13 -13 -31 -9 -40
10 -26 22 -19 18 11 -1 15 2 33 7 40 6 7 8 17 4 22 -3 6 1 23 9 38 9 16 15 21
16 12 0 -8 -5 -20 -11 -26 -9 -9 -7 -16 7 -30 16 -16 17 -16 11 -1 -3 9 -2 30
3 47 5 18 5 32 -1 35 -5 2 -4 3 3 2 7 -2 12 -13 10 -26 -2 -12 -1 -34 3 -48 5
-20 8 -23 16 -11 12 19 11 32 -1 24 -14 -8 -13 38 1 52 8 8 7 17 -2 34 -9 17
-9 24 0 27 6 2 8 9 4 15 -4 6 0 8 10 4 11 -4 17 -1 17 9 0 8 -5 12 -11 8 -10
-6 -4 7 26 55 12 18 35 26 35 11 0 -6 -4 -10 -10 -10 -13 0 -13 -31 1 -50 8
-11 9 -8 4 13 -3 16 -2 26 3 23 5 -3 9 9 9 27 1 57 7 86 17 80 5 -4 7 1 3 10
-4 11 -2 14 9 10 8 -3 13 -12 10 -19 -8 -21 11 -17 19 4 7 16 8 15 15 -3 4
-12 7 4 6 40 -1 33 -5 66 -9 73 -5 7 -4 12 2 12 6 0 10 6 8 13 -1 6 6 12 16
12 9 0 24 14 33 30 19 37 28 46 20 20 -3 -11 -2 -25 2 -32 4 -6 8 16 8 50 1
34 -1 52 -3 40 -2 -12 -11 -27 -19 -33 -8 -7 -14 -19 -14 -26 0 -8 -4 -14 -10
-14 -5 0 -7 -8 -4 -17 5 -14 4 -15 -4 -4 -12 16 17 82 32 73 5 -3 7 2 3 11 -3
9 3 27 13 40 11 13 17 27 14 29 -8 8 18 58 27 52 4 -2 6 -11 2 -19 -3 -8 0
-15 7 -15 7 0 10 -7 6 -15 -3 -8 -1 -15 3 -15 9 0 21 24 21 41 0 6 -4 8 -9 5
-4 -3 -13 6 -20 20 -9 20 -8 30 5 52 9 16 13 19 9 7 -4 -13 -3 -16 3 -10 15
16 26 59 13 51 -7 -5 -9 -1 -5 8 3 9 11 13 17 9 7 -4 8 0 4 11 -4 10 -4 23 0
29 10 17 13 39 7 58 -7 24 -120 82 -144 74 -11 -4 -20 -2 -20 4 0 6 10 12 23
12 19 1 20 2 3 6 -11 3 -25 -2 -31 -11 -11 -14 -18 -15 -76 -1 l-64 14 55 -4
c49 -4 51 -3 20 5 -37 10 -112 3 -93 -8 6 -4 -29 -7 -79 -7 -92 0 -84 12 9 14
28 1 54 4 57 9 2 4 -30 4 -72 1 -42 -4 -97 -6 -122 -4 -25 1 -34 1 -20 -2 49
-8 56 -15 25 -24 -51 -16 -162 7 -114 23 7 2 -6 4 -27 5 -21 0 -32 -2 -24 -5
8 -3 25 -13 38 -22 l22 -18 -22 -1 c-94 -6 -205 -7 -220 -3 -20 5 -19 43 2 50
7 3 10 1 7 -4 -3 -5 18 -10 47 -10 31 -1 38 0 17 3 -22 3 -30 7 -22 12 7 4 -3
7 -23 7 -19 -1 -38 -5 -42 -8 -4 -4 -15 -3 -26 3 -11 6 -22 8 -26 5 -3 -3 0
-6 7 -6 7 0 9 -4 6 -10 -3 -5 0 -7 8 -4 19 7 32 -12 16 -22 -8 -5 -9 -3 -4 6
6 10 4 12 -8 7 -10 -4 -22 1 -30 13 -8 11 -16 18 -19 15 -2 -3 -18 10 -36 28
l-31 32 25 1 c21 2 23 0 12 -14 -11 -13 -11 -14 1 -7 9 5 12 4 7 -3 -3 -6 -2
-13 2 -16 5 -3 8 7 7 22 -3 44 -4 47 -17 34 -15 -15 -32 -16 -22 -1 5 8 1 8
-14 0 -15 -8 -23 -7 -31 3 -8 9 -8 16 -2 20 6 4 9 19 8 34 -2 30 -28 37 -47
14 -7 -9 -7 -9 2 -2 11 9 37 -13 38 -32 0 -15 -27 -8 -45 12 -10 11 -15 20
-11 20 4 0 -3 13 -17 30 -17 19 -23 37 -20 51 4 16 8 17 14 7 10 -15 12 -6 3
16 -10 26 -36 20 -29 -6 5 -18 4 -20 -4 -8 -9 12 -12 140 -4 140 1 0 11 -19
22 -43 26 -54 27 -33 2 24 -13 28 -16 47 -10 55 5 6 5 15 1 19 -4 5 -2 5 4 2
7 -4 15 0 18 9 4 10 2 13 -7 8 -7 -5 -6 0 3 12 22 28 31 33 49 26 13 -5 14 -3
3 10 -10 12 -10 17 1 27 8 6 17 8 20 4 4 -3 7 0 7 7 0 7 2 11 5 8 10 -10 -7
-38 -19 -31 -6 4 -5 -1 3 -10 14 -18 26 -23 16 -8 -3 6 4 19 16 30 12 11 19
26 16 35 -7 16 9 30 33 31 8 0 15 5 15 10 0 12 42 55 52 54 20 -3 33 2 33 12
0 8 -4 8 -13 1 -10 -8 -13 -6 -13 8 0 10 4 16 8 14 4 -3 8 -4 9 -2 0 2 2 23 4
48 3 37 2 40 -4 15 l-9 -30 -1 28 c0 16 4 38 10 49 8 15 8 19 0 14 -7 -5 -11
7 -11 36 0 26 4 38 8 30 6 -8 9 -2 9 18 0 21 -3 27 -10 18 -6 -9 -7 -5 -3 12
3 14 6 34 6 44 0 11 3 16 6 13 9 -9 41 34 49 66 6 21 4 27 -9 27 -9 0 -16 4
-16 9 0 5 8 8 18 7 25 -4 27 -51 4 -89 l-19 -33 26 1 c25 0 26 2 23 58 -2 54
-21 95 -36 80 -3 -4 -6 5 -6 18 0 19 -2 21 -10 9 -16 -25 -12 7 5 40 9 18 11
30 5 30 -6 0 -15 -10 -21 -22 l-10 -23 5 23 c2 12 0 22 -6 22 -6 0 -8 12 -5
26 3 15 2 39 -2 53 -4 14 -4 41 1 60 7 25 13 32 28 28 13 -3 17 0 13 9 -3 7 2
20 10 29 12 11 17 12 20 2 2 -6 8 1 12 16 6 22 11 26 29 21 25 -8 20 -1 -12
15 -12 7 -22 8 -21 4 4 -22 -2 -35 -14 -30 -8 3 -18 -7 -26 -24 -7 -16 -16
-29 -21 -29 -5 0 1 18 13 39 14 26 24 35 29 28 4 -7 8 -9 9 -4 1 4 3 12 4 17
1 6 3 14 4 20 0 5 21 -1 46 -14 47 -25 61 -19 23 9 l-23 17 23 -7 c23 -7 23
-6 6 14 -16 18 -20 19 -27 6 -4 -8 -13 -15 -20 -15 -7 0 1 12 16 25 20 18 33
23 45 16 19 -9 65 -8 127 3 29 6 36 5 25 -3 -18 -13 -1 -14 19 -2 11 7 3 12
-28 21 -45 12 -77 7 -66 -10 3 -5 -1 -10 -9 -10 -25 0 -19 19 9 32 20 9 39 8
88 -3 35 -9 84 -15 111 -14 35 2 43 -1 31 -7 -9 -6 -28 -7 -43 -4 -22 5 -24 4
-10 -4 18 -11 91 -3 84 9 -3 4 4 7 14 7 10 0 17 -3 14 -7 -2 -4 5 -5 16 -2 11
3 18 8 15 12 -2 4 8 6 23 4 15 -3 36 3 47 11 l20 16 -20 -7 c-11 -3 -17 -3
-13 1 3 4 12 9 20 10 7 1 23 7 35 14 18 10 25 9 37 -4 19 -18 22 -4 4 15 -11
11 -10 13 5 7 48 -17 53 -18 37 -7 -11 8 -12 11 -2 11 7 0 10 5 6 11 -4 8 1 9
17 3 13 -5 43 -9 66 -9 23 0 41 -4 40 -10 -2 -11 102 -11 143 0 17 5 21 4 12
-3 -9 -6 3 -9 39 -9 29 1 47 3 40 5 -9 3 -9 8 1 20 11 14 10 15 -7 8 -11 -5
-29 -10 -40 -13 -17 -4 -17 -2 5 16 14 11 28 21 33 21 4 0 7 6 7 13 0 8 6 14
13 14 6 0 21 4 32 8 13 4 16 4 8 -2 -16 -11 94 -10 120 2 10 4 32 5 49 1 17
-3 29 -3 25 0 -12 13 -87 22 -80 10 4 -6 -2 -4 -13 4 -10 8 -21 16 -24 18 -3
2 2 3 10 1 8 -2 38 9 65 23 28 14 61 28 75 32 23 7 24 6 7 -8 -16 -13 -13 -14
32 -13 28 1 46 4 40 6 -7 2 -7 7 2 13 10 7 6 8 -13 4 -15 -3 -30 -2 -33 4 -3
6 1 7 9 4 9 -3 16 -2 16 4 0 5 7 13 16 16 8 3 13 2 10 -2 -10 -16 25 -44 61
-49 28 -3 34 -1 23 6 -8 6 -22 11 -31 11 -9 0 -22 7 -29 15 -10 12 -9 16 6 21
11 3 29 11 41 16 12 6 29 8 37 5 9 -4 16 -2 16 4 0 6 14 7 36 3 23 -4 35 -3
31 3 -4 6 9 10 31 11 28 0 32 -2 17 -7 -14 -6 -8 -8 22 -7 39 1 40 2 20 12
l-22 12 25 0 c14 1 52 1 84 2 44 0 62 -3 68 -15 5 -8 14 -15 21 -15 7 0 6 4
-3 10 -20 13 1 13 34 0 32 -12 35 -3 4 10 -23 9 -23 9 2 10 l25 2 -25 8 c-34
11 -60 11 -35 0 l20 -9 -20 1 c-11 0 -31 3 -45 7 -22 7 -21 8 17 14 23 4 49 4
59 0 11 -4 22 0 30 12 11 15 29 18 102 19 68 1 88 4 85 14 -3 7 -14 10 -27 7
-18 -5 -17 -4 4 9 14 9 32 15 40 15 10 0 8 -3 -5 -9 -15 -7 -12 -8 15 -6 19 2
36 8 38 14 2 6 17 8 38 5 20 -3 34 -1 34 5 0 5 -10 8 -22 5 -20 -4 -20 -3 -6
6 9 6 29 12 45 13 15 1 33 5 39 10 7 5 29 5 51 0 50 -11 176 -8 228 6 44 12
85 12 85 0 0 -4 5 -8 11 -8 6 0 7 6 2 13 -4 6 5 4 20 -6 15 -9 27 -13 27 -7 0
5 5 10 11 10 5 0 8 -4 5 -9 -3 -4 7 -8 22 -8 52 0 109 -22 61 -24 -15 0 -19
-3 -9 -6 8 -4 21 -12 28 -20 7 -7 19 -13 25 -13 8 0 7 4 -1 12 -15 15 -15 28
-1 28 5 0 8 -3 6 -7 -3 -5 28 -8 69 -9 41 0 74 3 74 7 0 4 12 9 28 12 15 3 38
8 52 13 38 11 17 -6 -27 -21 -26 -10 -31 -14 -16 -15 31 0 73 21 73 36 0 10 9
12 33 8 26 -5 29 -3 17 6 -16 13 -17 13 35 -5 14 -5 16 -4 7 3 -21 15 25 23
96 17 35 -3 63 -1 67 5 3 5 20 9 38 9 18 -1 45 4 60 10 16 6 36 11 45 10 9 0
-5 -9 -33 -20 -28 -11 -37 -17 -20 -13 17 3 41 11 55 18 14 7 50 13 80 15 30
1 57 4 59 7 9 9 22 3 15 -8z"/>
    </g>
</svg>
